# xmcd
#
# Track frame offsets: 
#        150
#        15974
#        31854
#        46254
#        64553
#        85119
#        103382
#        124604
#        147896
#        169571
#        194958
#        212281
#        240220
#        258183
#
# Disc length: 3663 seconds
#
# Revision: 0
# Processed by: cddbd v1.5.2PL0 Copyright (c) Steve Scherf et al.
# Submitted via: ExactAudioCopy v1.0b4
#
DISCID=ac0e4d0e
DTITLE=Blues Boy Bo - Back Road
DYEAR=2016
DGENRE=Blues
TTITLE0=Got Me Singing the Blues
TTITLE1=Dance
TTITLE2=Panties Away
TTITLE3=Love Therapy
TTITLE4=Baby Daddy
TTITLE5=Sun Dress
TTITLE6=Stacked in the Back
TTITLE7=Pre-Nup
TTITLE8=Bad Reputation
TTITLE9=Back It Up
TTITLE10=Beautiful
TTITLE11=Good Man
TTITLE12=Star
TTITLE13=Back Road
EXTD=
EXTT0=
EXTT1=
EXTT2=
EXTT3=
EXTT4=
EXTT5=
EXTT6=
EXTT7=
EXTT8=
EXTT9=
EXTT10=
EXTT11=
EXTT12=
EXTT13=
PLAYORDER=
